<svg 
 xmlns="http://www.w3.org/2000/svg"
 xmlns:xlink="http://www.w3.org/1999/xlink"
 width="11.014in" height="0.958in">
<path fill-rule="evenodd"  fill="rgb(245, 45, 45)"
 d="M790.446,24.346 C789.954,24.323 789.555,24.311 789.251,24.311 C785.219,24.311 782.512,25.624 781.130,28.249 C780.356,29.725 779.969,31.999 779.969,35.069 L779.969,53.385 L769.880,53.385 L769.880,15.065 L779.442,15.065 L779.442,21.745 C780.989,19.190 782.336,17.444 783.485,16.506 C785.360,14.937 787.797,14.151 790.797,14.151 C790.985,14.151 791.143,14.157 791.272,14.169 C791.401,14.181 791.688,14.198 792.133,14.221 L792.133,24.487 C791.501,24.417 790.938,24.370 790.446,24.346 ZM738.448,37.038 C738.604,40.882 739.940,43.577 742.456,45.124 C743.986,46.085 745.827,46.565 747.980,46.565 C750.263,46.565 752.117,45.980 753.544,44.807 C754.321,44.174 755.009,43.296 755.606,42.171 L765.835,42.171 C765.565,44.444 764.327,46.753 762.121,49.096 C758.688,52.823 753.883,54.686 747.704,54.686 C742.604,54.686 738.105,53.115 734.206,49.971 C730.308,46.828 728.359,41.714 728.359,34.630 C728.359,27.992 730.118,22.901 733.638,19.359 C737.156,15.817 741.725,14.046 747.341,14.046 C750.676,14.046 753.680,14.644 756.353,15.841 C759.026,17.039 761.234,18.928 762.975,21.510 C764.544,23.787 765.562,26.428 766.028,29.432 C766.298,31.193 766.408,33.728 766.358,37.038 L738.448,37.038 ZM753.287,24.373 C751.690,22.996 749.709,22.307 747.345,22.307 C744.773,22.307 742.779,23.037 741.364,24.497 C739.948,25.956 739.058,27.933 738.695,30.428 L755.956,30.428 C755.774,27.769 754.885,25.750 753.287,24.373 ZM709.373,54.475 C706.306,54.475 703.758,53.713 701.730,52.190 C700.621,51.346 699.536,50.116 698.474,48.499 L698.474,68.467 L688.560,68.467 L688.560,15.065 L698.158,15.065 L698.158,20.725 C699.243,19.061 700.399,17.749 701.625,16.788 C703.866,15.077 706.531,14.221 709.622,14.221 C714.127,14.221 717.942,15.874 721.067,19.178 C724.193,22.483 725.756,27.335 725.756,33.733 C725.756,40.483 724.228,45.628 721.173,49.167 C718.118,52.706 714.185,54.475 709.373,54.475 ZM713.377,26.385 C712.016,24.112 709.808,22.975 706.754,22.975 C703.083,22.975 700.562,24.698 699.188,28.143 C698.478,29.971 698.123,32.292 698.123,35.104 C698.123,39.557 699.318,42.686 701.707,44.491 C703.128,45.546 704.809,46.073 706.751,46.073 C709.569,46.073 711.719,44.995 713.199,42.839 C714.679,40.682 715.420,37.811 715.420,34.225 C715.420,31.272 714.739,28.659 713.377,26.385 ZM666.408,54.686 C659.821,54.686 654.912,52.690 651.677,48.698 C648.443,44.705 646.826,39.899 646.826,34.278 C646.826,28.752 648.443,23.963 651.677,19.912 C654.912,15.860 659.821,13.835 666.408,13.835 C672.993,13.835 677.904,15.860 681.138,19.912 C684.372,23.963 685.990,28.752 685.990,34.278 C685.990,39.899 684.372,44.705 681.138,48.698 C677.904,52.690 672.993,54.686 666.408,54.686 ZM673.122,25.414 C671.552,23.343 669.302,22.307 666.372,22.307 C663.442,22.307 661.187,23.343 659.605,25.414 C658.023,27.485 657.232,30.440 657.232,34.278 C657.232,38.117 658.023,41.077 659.605,43.160 C661.187,45.243 663.442,46.284 666.372,46.284 C669.302,46.284 671.552,45.243 673.122,43.160 C674.692,41.077 675.478,38.117 675.478,34.278 C675.478,30.440 674.692,27.485 673.122,25.414 ZM633.708,1.565 L643.728,1.565 L643.728,53.385 L633.708,53.385 L633.708,1.565 ZM603.401,37.038 C603.556,40.882 604.892,43.577 607.408,45.124 C608.938,46.085 610.780,46.565 612.932,46.565 C615.215,46.565 617.069,45.980 618.496,44.807 C619.274,44.174 619.961,43.296 620.558,42.171 L630.787,42.171 C630.518,44.444 629.279,46.753 627.073,49.096 C623.640,52.823 618.835,54.686 612.656,54.686 C607.556,54.686 603.057,53.115 599.158,49.971 C595.260,46.828 593.311,41.714 593.311,34.630 C593.311,27.992 595.070,22.901 598.590,19.359 C602.109,15.817 606.677,14.046 612.293,14.046 C615.628,14.046 618.632,14.644 621.305,15.841 C623.978,17.039 626.186,18.928 627.927,21.510 C629.496,23.787 630.514,26.428 630.980,29.432 C631.250,31.193 631.360,33.728 631.310,37.038 L603.401,37.038 ZM618.239,24.373 C616.642,22.996 614.661,22.307 612.297,22.307 C609.725,22.307 607.731,23.037 606.316,24.497 C604.900,25.956 604.010,27.933 603.647,30.428 L620.908,30.428 C620.726,27.769 619.837,25.750 618.239,24.373 ZM570.574,53.385 L556.832,15.065 L568.082,15.065 L576.062,43.331 L584.219,15.065 L594.977,15.065 L581.139,53.385 L570.574,53.385 ZM559.864,37.038 L531.955,37.038 C532.110,40.882 533.446,43.577 535.962,45.124 C537.492,46.085 539.334,46.565 541.486,46.565 C543.769,46.565 545.623,45.980 547.050,44.807 C547.828,44.174 548.516,43.296 549.112,42.171 L559.341,42.171 C559.072,44.444 557.834,46.753 555.627,49.096 C552.194,52.823 547.389,54.686 541.210,54.686 C536.110,54.686 531.611,53.115 527.712,49.971 C523.814,46.828 521.865,41.714 521.865,34.630 C521.865,27.992 523.624,22.901 527.144,19.359 C530.663,15.817 535.231,14.046 540.847,14.046 C544.182,14.046 547.186,14.644 549.859,15.841 C552.532,17.039 554.740,18.928 556.481,21.510 C558.051,23.787 559.068,26.428 559.534,29.432 C559.804,31.193 559.914,33.728 559.864,37.038 ZM546.793,24.373 C545.196,22.996 543.215,22.307 540.851,22.307 C538.279,22.307 536.286,23.037 534.870,24.497 C533.454,25.956 532.564,27.933 532.201,30.428 L549.463,30.428 C549.280,27.769 548.391,25.750 546.793,24.373 ZM500.363,53.385 L478.021,53.385 L478.021,1.565 L500.363,1.565 C503.577,1.612 506.250,1.987 508.385,2.690 C512.020,3.885 514.964,6.077 517.216,9.264 C519.022,11.843 520.253,14.632 520.910,17.631 C521.567,20.632 521.896,23.491 521.896,26.210 C521.896,33.100 520.511,38.936 517.744,43.717 C513.991,50.163 508.198,53.385 500.363,53.385 ZM508.410,14.801 C506.754,11.977 503.462,10.565 498.533,10.565 L488.533,10.565 L488.533,44.385 L498.533,44.385 C503.650,44.385 507.218,41.866 509.237,36.827 C510.340,34.062 510.892,30.768 510.892,26.948 C510.892,21.674 510.064,17.626 508.410,14.801 ZM439.929,54.405 C436.748,54.405 434.192,53.772 432.261,52.506 C431.106,51.757 429.858,50.444 428.515,48.569 L428.515,53.385 L418.636,53.385 L418.636,1.635 L428.656,1.635 L428.656,20.057 C429.929,18.276 431.333,16.917 432.866,15.979 C434.682,14.807 436.994,14.221 439.801,14.221 C444.873,14.221 448.842,16.038 451.708,19.671 C454.574,23.304 456.007,27.991 456.007,33.733 C456.007,39.687 454.593,44.620 451.767,48.534 C448.940,52.448 444.994,54.405 439.929,54.405 ZM444.432,28.038 C443.085,24.663 440.604,22.975 436.988,22.975 C433.326,22.975 430.809,24.628 429.438,27.932 C428.729,29.690 428.375,31.964 428.375,34.753 C428.375,38.034 429.107,40.753 430.572,42.909 C432.037,45.065 434.270,46.143 437.272,46.143 C439.871,46.143 441.892,45.101 443.333,43.014 C444.774,40.929 445.496,38.186 445.496,34.788 C445.496,32.069 445.141,29.819 444.432,28.038 ZM388.891,37.038 C389.047,40.882 390.383,43.577 392.898,45.124 C394.429,46.085 396.270,46.565 398.423,46.565 C400.705,46.565 402.560,45.980 403.986,44.807 C404.764,44.174 405.452,43.296 406.049,42.171 L416.278,42.171 C416.008,44.444 414.770,46.753 412.563,49.096 C409.131,52.823 404.325,54.686 398.147,54.686 C393.047,54.686 388.547,53.115 384.649,49.971 C380.750,46.828 378.801,41.714 378.801,34.630 C378.801,27.992 380.561,22.901 384.080,19.359 C387.599,15.817 392.167,14.046 397.784,14.046 C401.118,14.046 404.123,14.644 406.796,15.841 C409.469,17.039 411.676,18.928 413.418,21.510 C414.987,23.787 416.005,26.428 416.471,29.432 C416.740,31.193 416.850,33.728 416.801,37.038 L388.891,37.038 ZM403.730,24.373 C402.133,22.996 400.152,22.307 397.787,22.307 C395.216,22.307 393.222,23.037 391.806,24.497 C390.390,25.956 389.501,27.933 389.137,30.428 L406.399,30.428 C406.217,27.769 405.327,25.750 403.730,24.373 ZM356.737,53.385 L350.479,23.081 L348.651,13.061 L346.823,23.081 L340.565,53.385 L330.508,53.385 L315.815,1.565 L327.311,1.565 L334.153,31.240 L335.643,39.499 L337.138,31.409 L342.991,1.565 L354.416,1.565 L360.574,31.236 L362.151,39.499 L363.750,31.557 L370.659,1.565 L381.683,1.565 L367.105,53.385 L356.737,53.385 ZM286.899,53.385 L277.615,37.013 L273.465,41.327 L273.465,53.385 L263.621,53.385 L263.621,1.741 L273.465,1.741 L273.465,29.696 L286.102,15.241 L298.562,15.241 L284.827,29.517 L299.094,53.385 L286.899,53.385 ZM249.481,24.944 C248.352,23.397 246.602,22.624 244.230,22.624 C240.846,22.624 238.532,24.300 237.287,27.651 C236.629,29.428 236.300,31.789 236.300,34.734 C236.300,37.540 236.629,39.796 237.287,41.503 C238.485,44.690 240.741,46.284 244.054,46.284 C246.403,46.284 248.071,45.651 249.058,44.385 C250.044,43.120 250.644,41.480 250.855,39.464 L261.086,39.464 C260.851,42.511 259.748,45.393 257.778,48.112 C254.633,52.495 249.977,54.686 243.807,54.686 C237.636,54.686 233.097,52.858 230.188,49.202 C227.279,45.546 225.824,40.805 225.824,34.980 C225.824,28.407 227.431,23.292 230.645,19.635 C233.859,15.979 238.293,14.151 243.948,14.151 C248.757,14.151 252.692,15.229 255.754,17.385 C258.815,19.542 260.628,23.350 261.191,28.811 L250.925,28.811 C250.738,27.382 250.256,26.093 249.481,24.944 ZM214.183,51.206 C214.065,50.526 213.972,49.753 213.902,48.885 C212.511,50.386 210.907,51.663 209.092,52.717 C206.924,53.959 204.472,54.581 201.737,54.581 C198.248,54.581 195.366,53.590 193.091,51.610 C191.676,50.378 190.702,48.826 190.167,46.955 L190.167,53.737 L185.421,53.913 C180.686,54.076 177.452,53.257 175.718,51.452 C174.593,50.304 174.030,48.534 174.030,46.143 L174.030,22.553 L168.687,22.553 L168.687,15.417 L174.030,15.417 L174.030,4.729 L183.944,4.729 L183.944,15.417 L190.167,15.417 L190.167,22.553 L183.944,22.553 L183.944,42.803 C183.944,44.374 184.143,45.352 184.542,45.739 C184.940,46.126 186.159,46.319 188.198,46.319 C188.503,46.319 188.825,46.313 189.165,46.301 C189.446,46.292 189.720,46.276 189.993,46.258 C189.785,45.310 189.679,44.289 189.679,43.190 C189.679,38.479 191.509,35.069 195.168,32.960 C197.176,31.812 200.127,30.991 204.023,30.499 L207.458,30.077 C209.323,29.843 210.657,29.549 211.460,29.198 C212.900,28.589 213.620,27.639 213.620,26.350 C213.620,24.780 213.068,23.696 211.963,23.098 C210.859,22.501 209.237,22.202 207.099,22.202 C204.700,22.202 203.001,22.788 202.003,23.960 C201.290,24.827 200.815,25.999 200.577,27.475 L190.910,27.475 C191.121,24.124 192.063,21.370 193.734,19.214 C196.394,15.839 200.960,14.151 207.434,14.151 C211.647,14.151 215.390,14.983 218.662,16.647 C221.934,18.312 223.570,21.452 223.570,26.069 L223.570,43.647 C223.570,44.866 223.593,46.343 223.640,48.077 C223.710,49.390 223.909,50.280 224.238,50.749 C224.566,51.218 225.058,51.605 225.714,51.909 L225.714,53.385 L214.816,53.385 C214.511,52.612 214.300,51.886 214.183,51.206 ZM213.585,34.753 C212.943,35.151 212.296,35.473 211.642,35.719 C210.989,35.965 210.092,36.194 208.952,36.405 L206.671,36.827 C204.533,37.202 202.998,37.659 202.066,38.198 C200.487,39.112 199.699,40.530 199.699,42.452 C199.699,44.163 200.180,45.399 201.144,46.161 C202.108,46.923 203.280,47.303 204.661,47.303 C206.850,47.303 208.867,46.671 210.711,45.405 C212.556,44.139 213.513,41.831 213.585,38.479 L213.585,34.753 ZM153.919,10.354 C152.189,9.487 150.039,9.053 147.468,9.053 C144.609,9.053 142.326,9.616 140.620,10.741 C138.914,11.866 138.061,13.436 138.061,15.452 C138.061,17.304 138.902,18.686 140.584,19.600 C141.665,20.210 143.960,20.925 147.469,21.745 L156.563,23.889 C160.549,24.827 163.536,26.081 165.525,27.651 C168.614,30.089 170.159,33.616 170.159,38.233 C170.159,42.968 168.329,46.899 164.668,50.028 C161.008,53.157 155.838,54.721 149.158,54.721 C142.335,54.721 136.970,53.181 133.061,50.098 C129.152,47.017 127.198,42.780 127.198,37.389 L137.534,37.389 C137.869,39.757 138.527,41.526 139.508,42.698 C141.303,44.831 144.378,45.897 148.733,45.897 C151.342,45.897 153.460,45.616 155.087,45.053 C158.174,43.976 159.717,41.972 159.717,39.042 C159.717,37.331 158.961,36.007 157.449,35.069 C155.937,34.155 153.538,33.346 150.254,32.643 L144.644,31.413 C139.130,30.194 135.342,28.870 133.280,27.440 C129.787,25.049 128.042,21.311 128.042,16.225 C128.042,11.585 129.750,7.730 133.166,4.659 C136.583,1.589 141.601,0.053 148.221,0.053 C153.749,0.053 158.464,1.501 162.367,4.395 C166.270,7.290 168.316,11.491 168.507,16.999 L158.100,16.999 C157.908,13.882 156.514,11.667 153.919,10.354 ZM94.884,1.565 L104.903,1.565 L104.903,53.385 L94.884,53.385 L94.884,1.565 ZM79.200,1.565 L89.219,1.565 L89.219,53.385 L79.200,53.385 L79.200,1.565 ZM63.832,47.971 C63.739,48.089 63.505,48.440 63.131,49.026 C62.757,49.612 62.313,50.128 61.799,50.573 C60.233,51.979 58.720,52.940 57.259,53.456 C55.798,53.971 54.086,54.229 52.123,54.229 C46.467,54.229 42.658,52.190 40.695,48.112 C39.596,45.862 39.047,42.546 39.047,38.163 L39.047,15.065 L49.313,15.065 L49.313,38.163 C49.313,40.342 49.569,41.983 50.082,43.085 C50.992,45.030 52.776,46.003 55.434,46.003 C58.839,46.003 61.171,44.620 62.431,41.854 C63.084,40.355 63.410,38.374 63.410,35.913 L63.410,15.065 L73.571,15.065 L73.571,53.385 L63.832,53.385 L63.832,47.971 ZM11.234,22.659 L34.191,22.659 L34.191,31.659 L11.234,31.659 L11.234,53.385 L0.477,53.385 L0.477,1.635 L37.426,1.635 L37.426,10.741 L11.234,10.741 L11.234,22.659 Z"/>
</svg>
